<?xml version="1.0" encoding="UTF-8"?>
<svg width="18px" height="16px" viewBox="0 0 58 60" version="1.1" xmlns="http://www.w3.org/2000/svg" xmlns:xlink="http://www.w3.org/1999/xlink">
    <title>adpage-logo</title>
    <g id="Page-1" stroke="none" stroke-width="1" fill="none" fill-rule="evenodd">
        <g id="adpage-logo">
            <path d="M30.224,41.546 L30.224,39.35 C28.555,38.647 26.183,38.119 23.723,38.119 C18.89,38.119 16.079,40.491 16.079,44.006 L16.079,44.182 C16.079,47.433 18.539,49.365 21.965,49.365 C26.797,49.365 30.224,46.29 30.224,41.546 Z M0,45.148 L0,44.973 C0,35.132 7.468,30.036 18.626,30.036 C23.019,30.036 27.325,30.915 30.048,31.882 L30.048,31.091 C30.048,26.17 26.973,23.359 20.56,23.359 C15.551,23.359 11.685,24.325 7.468,25.995 L4.042,14.222 C9.401,12.025 15.112,10.531 23.283,10.531 C31.806,10.531 37.604,12.552 41.382,16.33 C44.984,19.845 46.478,24.765 46.478,31.442 L46.478,58.767 L29.96,58.767 L29.96,53.847 C26.71,57.448 22.229,59.821 15.991,59.821 C6.941,59.821 0,54.637 0,45.148 L0,45.148 Z" id="Fill-1" fill="#FFFFFF"></path>
            <polygon id="Fill-9" fill="#81C4FE" points="57.236 0 35 0 57.236 22.237"></polygon>
        </g>
    </g>
</svg>