<?xml version="1.0" encoding="UTF-8"?>
<svg width="338px" height="81px" viewBox="0 0 338 81" version="1.1" xmlns="http://www.w3.org/2000/svg" xmlns:xlink="http://www.w3.org/1999/xlink">
    <!-- Generator: Sketch 46.2 (44496) - http://www.bohemiancoding.com/sketch -->
    <title>Logo dark</title>
    <desc>Created with Sketch.</desc>
    <defs></defs>
    <g id="Page-1" stroke="none" stroke-width="1" fill="none" fill-rule="evenodd">
        <g id="Logo's" transform="translate(-4.000000, 0.000000)">
            <g id="Logo-dark" transform="translate(1.000000, 0.000000)">
                <path d="M23.97,57.45 C27.2100162,57.45 29.8049903,56.6700078 31.755,55.11 C33.7050098,53.5499922 34.68,51.5100126 34.68,48.99 L34.68,46.56 C33.479994,46.0199973 32.1450074,45.5850016 30.675,45.255 C29.2049927,44.9249984 27.6300084,44.76 25.95,44.76 C23.0099853,44.76 20.7000084,45.3299943 19.02,46.47 C17.3399916,47.6100057 16.5,49.2599892 16.5,51.42 L16.5,51.6 C16.5,53.4600093 17.1899931,54.8999949 18.57,55.92 C19.9500069,56.9400051 21.7499889,57.45 23.97,57.45 Z M19.83,66.9 C17.5499886,66.9 15.4050101,66.5850032 13.395,65.955 C11.38499,65.3249969 9.6300075,64.3800063 8.13,63.12 C6.6299925,61.8599937 5.44500435,60.3150092 4.575,58.485 C3.70499565,56.6549909 3.27,54.540012 3.27,52.14 L3.27,51.96 C3.27,49.3199868 3.7499952,47.0400096 4.71,45.12 C5.6700048,43.1999904 7.00499145,41.6100063 8.715,40.35 C10.4250086,39.0899937 12.4649882,38.1450032 14.835,37.515 C17.2050119,36.8849969 19.8299856,36.57 22.71,36.57 C25.1700123,36.57 27.3149909,36.7499982 29.145,37.11 C30.9750092,37.4700018 32.7599913,37.949997 34.5,38.55 L34.5,37.74 C34.5,34.8599856 33.6300087,32.6700075 31.89,31.17 C30.1499913,29.6699925 27.5700171,28.92 24.15,28.92 C21.5099868,28.92 19.1850101,29.1449978 17.175,29.595 C15.16499,30.0450022 13.0500111,30.6899958 10.83,31.53 L7.41,21.09 C10.0500132,19.9499943 12.8099856,19.0200036 15.69,18.3 C18.5700144,17.5799964 22.0499796,17.22 26.13,17.22 C29.9100189,17.22 33.1349867,17.6849953 35.805,18.615 C38.4750134,19.5450046 40.6799913,20.8799913 42.42,22.62 C44.220009,24.420009 45.5399958,26.624987 46.38,29.235 C47.2200042,31.8450131 47.64,34.7699838 47.64,38.01 L47.64,66 L34.41,66 L34.41,60.78 C32.7299916,62.6400093 30.7200117,64.1249945 28.38,65.235 C26.0399883,66.3450055 23.1900168,66.9 19.83,66.9 Z M80.74,55.29 C82.3600081,55.29 83.874993,54.9750032 85.285,54.345 C86.6950071,53.7149969 87.9249948,52.8150059 88.975,51.645 C90.0250053,50.4749942 90.8649969,49.0650083 91.495,47.415 C92.1250032,45.7649918 92.44,43.9500099 92.44,41.97 L92.44,41.79 C92.44,39.8099901 92.1250032,37.9950083 91.495,36.345 C90.8649969,34.6949918 90.0250053,33.2850059 88.975,32.115 C87.9249948,30.9449942 86.6950071,30.0450032 85.285,29.415 C83.874993,28.7849969 82.3600081,28.47 80.74,28.47 C79.1199919,28.47 77.6050071,28.7849969 76.195,29.415 C74.784993,30.0450032 73.5400054,30.9449942 72.46,32.115 C71.3799946,33.2850059 70.5250032,34.6799919 69.895,36.3 C69.2649969,37.9200081 68.95,39.7499898 68.95,41.79 L68.95,41.97 C68.95,43.9500099 69.2649969,45.7649918 69.895,47.415 C70.5250032,49.0650083 71.3799946,50.4749942 72.46,51.645 C73.5400054,52.8150059 74.784993,53.7149969 76.195,54.345 C77.6050071,54.9750032 79.1199919,55.29 80.74,55.29 Z M77.23,66.9 C74.4099859,66.9 71.6800132,66.3600054 69.04,65.28 C66.3999868,64.1999946 64.0600102,62.5950106 62.02,60.465 C59.9799898,58.3349894 58.3450062,55.7250155 57.115,52.635 C55.8849939,49.5449845 55.27,45.9900201 55.27,41.97 L55.27,41.79 C55.27,37.7699799 55.8849939,34.2150155 57.115,31.125 C58.3450062,28.0349846 59.96499,25.4250107 61.975,23.295 C63.9850101,21.1649893 66.3099868,19.5600054 68.95,18.48 C71.5900132,17.3999946 74.3499856,16.86 77.23,16.86 C80.8900183,16.86 83.9049882,17.5799928 86.275,19.02 C88.6450119,20.4600072 90.6399919,22.1399904 92.26,24.06 L92.26,0.3 L105.94,0.3 L105.94,66 L92.26,66 L92.26,59.07 C90.5799916,61.3500114 88.5550119,63.2249927 86.185,64.695 C83.8149882,66.1650073 80.830018,66.9 77.23,66.9 Z M141.29,60.78 C143.510011,60.78 145.62499,60.3750041 147.635,59.565 C149.64501,58.754996 151.384993,57.5850077 152.855,56.055 C154.325007,54.5249923 155.494996,52.6500111 156.365,50.43 C157.235004,48.2099889 157.67,45.6900141 157.67,42.87 L157.67,42.69 C157.67,39.9299862 157.235004,37.4400111 156.365,35.22 C155.494996,32.9999889 154.310008,31.1100078 152.81,29.55 C151.309993,27.9899922 149.57001,26.7900042 147.59,25.95 C145.60999,25.1099958 143.510011,24.69 141.29,24.69 C139.129989,24.69 137.04501,25.1249957 135.035,25.995 C133.02499,26.8650044 131.225008,28.0949921 129.635,29.685 C128.044992,31.275008 126.785005,33.1649891 125.855,35.355 C124.924995,37.5450109 124.46,39.9599868 124.46,42.6 L124.46,42.78 C124.46,45.4800135 124.924995,47.9399889 125.855,50.16 C126.785005,52.3800111 128.044992,54.2699922 129.635,55.83 C131.225008,57.3900078 133.02499,58.6049957 135.035,59.475 C137.04501,60.3450044 139.129989,60.78 141.29,60.78 Z M117.8,19.47 L124.73,19.47 L124.73,28.83 C125.690005,27.4499931 126.754994,26.1300063 127.925,24.87 C129.095006,23.6099937 130.399993,22.5150047 131.84,21.585 C133.280007,20.6549954 134.884991,19.9050029 136.655,19.335 C138.425009,18.7649972 140.389989,18.48 142.55,18.48 C145.310014,18.48 148.024987,19.0199946 150.695,20.1 C153.365013,21.1800054 155.74999,22.7549896 157.85,24.825 C159.950011,26.8950103 161.629994,29.4149851 162.89,32.385 C164.150006,35.3550149 164.78,38.7599808 164.78,42.6 L164.78,42.78 C164.78,46.5600189 164.150006,49.949985 162.89,52.95 C161.629994,55.950015 159.96501,58.4849897 157.895,60.555 C155.82499,62.6250103 153.455013,64.2149945 150.785,65.325 C148.114987,66.4350055 145.370014,66.99 142.55,66.99 C140.389989,66.99 138.410009,66.7200027 136.61,66.18 C134.809991,65.6399973 133.190007,64.9200045 131.75,64.02 C130.309993,63.1199955 129.005006,62.070006 127.835,60.87 C126.664994,59.669994 125.630005,58.4100066 124.73,57.09 L124.73,80.4 L117.8,80.4 L117.8,19.47 Z M190.77,61.41 C192.930011,61.41 194.939991,61.110003 196.8,60.51 C198.660009,59.909997 200.294993,59.0550056 201.705,57.945 C203.115007,56.8349945 204.224996,55.5150077 205.035,53.985 C205.845004,52.4549924 206.25,50.7600093 206.25,48.9 L206.25,44.58 C204.509991,44.0999976 202.530011,43.6500021 200.31,43.23 C198.089989,42.8099979 195.540014,42.6 192.66,42.6 C188.339978,42.6 184.995012,43.4549915 182.625,45.165 C180.254988,46.8750086 179.07,49.1399859 179.07,51.96 L179.07,52.14 C179.07,53.5800072 179.384997,54.8849942 180.015,56.055 C180.645003,57.2250059 181.499995,58.1999961 182.58,58.98 C183.660005,59.7600039 184.904993,60.3599979 186.315,60.78 C187.725007,61.2000021 189.209992,61.41 190.77,61.41 Z M189.42,66.99 C187.259989,66.99 185.13001,66.690003 183.03,66.09 C180.92999,65.489997 179.070008,64.5750062 177.45,63.345 C175.829992,62.1149939 174.525005,60.600009 173.535,58.8 C172.544995,56.999991 172.05,54.900012 172.05,52.5 L172.05,52.32 C172.05,49.7999874 172.529995,47.5950094 173.49,45.705 C174.450005,43.8149906 175.814991,42.2400063 177.585,40.98 C179.355009,39.7199937 181.454988,38.7600033 183.885,38.1 C186.315012,37.4399967 188.999985,37.11 191.94,37.11 C194.940015,37.11 197.534989,37.2899982 199.725,37.65 C201.915011,38.0100018 204.05999,38.489997 206.16,39.09 L206.16,37.65 C206.16,33.5099793 204.960012,30.3750107 202.56,28.245 C200.159988,26.1149894 196.770022,25.05 192.39,25.05 C189.629986,25.05 187.125011,25.349997 184.875,25.95 C182.624989,26.550003 180.420011,27.3599949 178.26,28.38 L176.19,22.71 C178.770013,21.509994 181.379987,20.5500036 184.02,19.83 C186.660013,19.1099964 189.689983,18.75 193.11,18.75 C199.710033,18.75 204.719983,20.4599829 208.14,23.88 C211.380016,27.1200162 213,31.6799706 213,37.56 L213,66 L206.16,66 L206.16,59.07 C204.539992,61.1700105 202.365014,63.0149921 199.635,64.605 C196.904986,66.195008 193.50002,66.99 189.42,66.99 Z M246.19,56.28 C248.410011,56.28 250.53999,55.9050038 252.58,55.155 C254.62001,54.4049962 256.434992,53.325007 258.025,51.915 C259.615008,50.504993 260.889995,48.8400096 261.85,46.92 C262.810005,44.9999904 263.29,42.8700117 263.29,40.53 L263.29,40.35 C263.29,37.949988 262.810005,35.7900096 261.85,33.87 C260.889995,31.9499904 259.615008,30.3000069 258.025,28.92 C256.434992,27.5399931 254.62001,26.4750037 252.58,25.725 C250.53999,24.9749963 248.410011,24.6 246.19,24.6 C243.969989,24.6 241.88501,24.9749963 239.935,25.725 C237.98499,26.4750037 236.275007,27.5249933 234.805,28.875 C233.334993,30.2250067 232.180004,31.8599904 231.34,33.78 C230.499996,35.7000096 230.08,37.859988 230.08,40.26 L230.08,40.44 C230.08,42.7800117 230.514996,44.9249903 231.385,46.875 C232.255004,48.8250098 233.424993,50.4899931 234.895,51.87 C236.365007,53.2500069 238.07499,54.3299961 240.025,55.11 C241.97501,55.8900039 244.029989,56.28 246.19,56.28 Z M246.28,80.58 C242.37998,80.58 238.660018,80.0400054 235.12,78.96 C231.579982,77.8799946 228.250016,76.2600108 225.13,74.1 L228.28,68.7 C230.980014,70.6200096 233.799985,72.0899949 236.74,73.11 C239.680015,74.1300051 242.829983,74.64 246.19,74.64 C251.350026,74.64 255.459985,73.245014 258.52,70.455 C261.580015,67.664986 263.11,63.5400273 263.11,58.08 L263.11,52.59 C261.06999,55.2900135 258.580015,57.5999904 255.64,59.52 C252.699985,61.4400096 249.100021,62.4 244.84,62.4 C242.019986,62.4 239.305013,61.8900051 236.695,60.87 C234.084987,59.8499949 231.76001,58.3950095 229.72,56.505 C227.67999,54.6149906 226.045006,52.3350134 224.815,49.665 C223.584994,46.9949867 222.97,43.9800168 222.97,40.62 L222.97,40.44 C222.97,37.0199829 223.584994,33.9600135 224.815,31.26 C226.045006,28.5599865 227.67999,26.2650095 229.72,24.375 C231.76001,22.4849906 234.099987,21.0300051 236.74,20.01 C239.380013,18.9899949 242.079986,18.48 244.84,18.48 C247.000011,18.48 248.994991,18.7349975 250.825,19.245 C252.655009,19.7550025 254.304993,20.4299958 255.775,21.27 C257.245007,22.1100042 258.579994,23.0999943 259.78,24.24 C260.980006,25.3800057 262.059995,26.5799937 263.02,27.84 L263.02,19.47 L269.95,19.47 L269.95,57.9 C269.95,61.500018 269.440005,64.6649863 268.42,67.395 C267.399995,70.1250136 265.93001,72.4499904 264.01,74.37 C261.909989,76.4700105 259.360015,78.0299949 256.36,79.05 C253.359985,80.0700051 250.000019,80.58 246.28,80.58 Z M317.54,39.99 C317.359999,37.8899895 316.910004,35.8950095 316.19,34.005 C315.469996,32.1149906 314.495006,30.4500072 313.265,29.01 C312.034994,27.5699928 310.535009,26.4300042 308.765,25.59 C306.994991,24.7499958 304.970011,24.33 302.69,24.33 C300.70999,24.33 298.850009,24.7199961 297.11,25.5 C295.369991,26.2800039 293.840007,27.3749929 292.52,28.785 C291.199993,30.1950071 290.105004,31.8599904 289.235,33.78 C288.364996,35.7000096 287.810001,37.7699889 287.57,39.99 L317.54,39.99 Z M287.57,45.57 C287.810001,48.0300123 288.409995,50.2199904 289.37,52.14 C290.330005,54.0600096 291.559993,55.6799934 293.06,57 C294.560007,58.3200066 296.239991,59.3249966 298.1,60.015 C299.960009,60.7050035 301.90999,61.05 303.95,61.05 C307.190016,61.05 309.964988,60.450006 312.275,59.25 C314.585012,58.049994 316.69999,56.4600099 318.62,54.48 L322.94,58.35 C320.599988,60.9900132 317.930015,63.1049921 314.93,64.695 C311.929985,66.2850079 308.210022,67.08 303.77,67.08 C300.589984,67.08 297.590014,66.4950058 294.77,65.325 C291.949986,64.1549941 289.490011,62.5050107 287.39,60.375 C285.28999,58.2449893 283.625006,55.680015 282.395,52.68 C281.164994,49.679985 280.55,46.380018 280.55,42.78 C280.55,39.4199832 281.104994,36.2550148 282.215,33.285 C283.325006,30.3149852 284.86999,27.7350109 286.85,25.545 C288.83001,23.3549891 291.184986,21.6300063 293.915,20.37 C296.645014,19.1099937 299.629984,18.48 302.87,18.48 C306.290017,18.48 309.349986,19.1249935 312.05,20.415 C314.750014,21.7050064 317.029991,23.4599889 318.89,25.68 C320.750009,27.9000111 322.159995,30.509985 323.12,33.51 C324.080005,36.510015 324.56,39.7199829 324.56,43.14 L324.56,44.175 C324.56,44.565002 324.53,45.0299973 324.47,45.57 L287.57,45.57 Z" id="adpage" fill="#2E3261"></path>
                <polygon id="Shape" fill="#8BCCFF" points="317 1 341 1 341 25"></polygon>
            </g>
        </g>
    </g>
</svg>