<svg xmlns="http://www.w3.org/2000/svg" width="64" height="64" viewBox="0 0 64 64"><g class="nc-icon-wrapper"><circle class="st10" cx="31" cy="16" r="6.5" fill="none" stroke="#56AAFF" stroke-width="3" stroke-miterlimit="10"></circle><path class="st2" d="M31 24a7.956 7.956 0 0 0 5-1.765V16c0 2.757-2.243 5-5 5s-5-2.243-5-5v6.235A7.956 7.956 0 0 0 31 24z" fill="#0478ED"></path><path class="st1" d="M45.058 28.157L34 27.128V15.871c0-1.113-.595-2.186-1.607-2.649-2.225-1.02-4.393.579-4.393 2.684V37h-8.25A3.75 3.75 0 0 0 16 40.75V43h3.994c1.42 0 3.546.297 5.406.861a6.484 6.484 0 0 1 3.981 3.45c.408.866.619 1.81.619 2.766v6.792c.005.005 15 0 15 0v-7.472c1.321-3.303 3-6.827 3-10.384v-7.605a3.268 3.268 0 0 0-2.942-3.251z" fill="#D9DCE1"></path><path class="st4" fill="none" stroke="#56AAFF" stroke-width="2" stroke-miterlimit="10" d="M20 16h-6"></path><path class="st4" fill="none" stroke="#56AAFF" stroke-width="2" stroke-miterlimit="10" d="M20.865 11.724l-5.528-2.332"></path><path class="st4" fill="none" stroke="#56AAFF" stroke-width="2" stroke-miterlimit="10" d="M20.871 20.291l-5.524 2.341"></path></g></svg>