<?xml version="1.0" encoding="UTF-8"?>
<svg width="512px" height="512px" viewBox="0 0 512 512" version="1.1" xmlns="http://www.w3.org/2000/svg" xmlns:xlink="http://www.w3.org/1999/xlink">
    <!-- Generator: Sketch 48.2 (47327) - http://www.bohemiancoding.com/sketch -->
    <title>Group</title>
    <desc>Created with Sketch.</desc>
    <defs>
        <polygon id="path-1" points="0.378 60.94 97.9 60.94 97.9 0.377 0.378 0.377"></polygon>
        <polygon id="path-3" points="0.378 60.94 97.9 60.94 97.9 0.377 0.378 0.377"></polygon>
    </defs>
    <g id="Page-2" stroke="none" stroke-width="1" fill="none" fill-rule="evenodd">
        <g id="Group">
            <rect id="Rectangle" fill="#2E3261" x="0" y="0" width="512" height="512"></rect>
            <g id="adpage-logo" transform="translate(85.000000, 217.000000)">
                <path d="M30.224,47.546 L30.224,45.35 C28.555,44.647 26.183,44.119 23.723,44.119 C18.89,44.119 16.079,46.491 16.079,50.006 L16.079,50.182 C16.079,53.433 18.539,55.365 21.965,55.365 C26.797,55.365 30.224,52.29 30.224,47.546 Z M0,51.148 L0,50.973 C0,41.132 7.468,36.036 18.626,36.036 C23.019,36.036 27.325,36.915 30.048,37.882 L30.048,37.091 C30.048,32.17 26.973,29.359 20.56,29.359 C15.551,29.359 11.685,30.325 7.468,31.995 L4.042,20.222 C9.401,18.025 15.112,16.531 23.283,16.531 C31.806,16.531 37.604,18.552 41.382,22.33 C44.984,25.845 46.478,30.765 46.478,37.442 L46.478,64.767 L29.96,64.767 L29.96,59.847 C26.71,63.448 22.229,65.821 15.991,65.821 C6.941,65.821 0,60.637 0,51.148 Z" id="Fill-1" fill="#FFFFFF" fill-rule="nonzero"></path>
                <path d="M89.002,41.044 L89.002,40.868 C89.002,34.63 84.697,30.15 79.337,30.15 C73.977,30.15 69.584,34.543 69.584,40.868 L69.584,41.044 C69.584,47.37 73.977,51.852 79.337,51.852 C84.697,51.852 89.002,47.37 89.002,41.044 Z M53.243,41.22 L53.243,41.044 C53.243,25.581 62.907,16.18 74.153,16.18 C81.358,16.18 85.575,19.431 88.738,23.033 L88.738,0.629 L105.432,0.629 L105.432,64.767 L88.738,64.767 L88.738,58.44 C85.487,62.395 81.358,65.821 74.241,65.821 C62.995,65.821 53.243,56.42 53.243,41.22 Z" id="Fill-2" fill="#FFFFFF" fill-rule="nonzero"></path>
                <path d="M140.398,59.671 C142.564,59.671 144.629,59.275 146.592,58.484 C148.554,57.694 150.252,56.552 151.688,55.059 C153.123,53.564 154.265,51.734 155.115,49.567 C155.963,47.4 156.389,44.94 156.389,42.186 L156.389,42.011 C156.389,39.317 155.963,36.887 155.115,34.719 C154.265,32.553 153.107,30.708 151.644,29.184 C150.179,27.661 148.481,26.49 146.548,25.669 C144.615,24.85 142.564,24.439 140.398,24.439 C138.29,24.439 136.254,24.865 134.292,25.713 C132.329,26.563 130.572,27.764 129.021,29.315 C127.468,30.868 126.238,32.713 125.331,34.851 C124.421,36.989 123.969,39.347 123.969,41.923 L123.969,42.099 C123.969,44.734 124.421,47.137 125.331,49.304 C126.238,51.471 127.468,53.316 129.021,54.839 C130.572,56.362 132.329,57.549 134.292,58.397 C136.254,59.247 138.29,59.671 140.398,59.671 Z M117.467,19.344 L124.232,19.344 L124.232,28.481 C125.168,27.134 126.209,25.845 127.351,24.615 C128.493,23.385 129.767,22.317 131.173,21.408 C132.579,20.501 134.145,19.769 135.874,19.212 C137.601,18.656 139.52,18.377 141.628,18.377 C144.322,18.377 146.973,18.904 149.58,19.958 C152.185,21.013 154.513,22.55 156.564,24.571 C158.614,26.592 160.254,29.052 161.484,31.951 C162.714,34.851 163.33,38.176 163.33,41.923 L163.33,42.099 C163.33,45.789 162.714,49.099 161.484,52.027 C160.254,54.957 158.629,57.431 156.608,59.451 C154.587,61.472 152.273,63.024 149.667,64.107 C147.061,65.19 144.381,65.733 141.628,65.733 C139.52,65.733 137.587,65.47 135.83,64.942 C134.072,64.415 132.491,63.712 131.085,62.834 C129.679,61.955 128.405,60.931 127.263,59.759 C126.121,58.588 125.111,57.357 124.232,56.068 L124.232,78.824 L117.467,78.824 L117.467,19.344 Z" id="Fill-3" fill="#FFFFFF" fill-rule="nonzero"></path>
                <g id="Group-7" transform="translate(172.000000, 18.000000)">
                    <g id="Fill-4-Clipped">
                        <mask id="mask-2" fill="white">
                            <use xlink:href="#path-1"></use>
                        </mask>
                        <g id="path-1"></g>
                        <path d="M18.702,42.198 C20.804,42.198 22.761,41.907 24.569,41.323 C26.378,40.741 27.97,39.911 29.343,38.832 C30.714,37.753 31.794,36.471 32.583,34.984 C33.37,33.498 33.765,31.852 33.765,30.045 L33.765,25.847 C32.069,25.381 30.144,24.944 27.985,24.535 C25.823,24.128 23.343,23.923 20.542,23.923 C16.339,23.923 13.083,24.755 10.776,26.416 C8.47,28.077 7.319,30.278 7.319,33.017 L7.319,33.192 C7.319,34.591 7.624,35.858 8.239,36.995 C8.851,38.132 9.683,39.079 10.733,39.837 C11.784,40.595 12.995,41.178 14.368,41.586 C15.739,41.995 17.185,42.198 18.702,42.198 Z M17.335,47.733 C15.226,47.733 13.146,47.439 11.097,46.855 C9.046,46.27 7.231,45.376 5.649,44.175 C4.067,42.975 2.794,41.495 1.827,39.738 C0.86,37.981 0.378,35.931 0.378,33.588 L0.378,33.412 C0.378,30.952 0.847,28.8 1.784,26.954 C2.72,25.109 4.054,23.572 5.78,22.342 C7.509,21.111 9.56,20.176 11.931,19.53 C14.304,18.887 16.925,18.564 19.794,18.564 C22.724,18.564 25.255,18.74 27.396,19.091 C29.532,19.442 31.626,19.912 33.677,20.497 L33.677,19.101 C33.677,15.085 32.505,12.044 30.161,9.979 C27.819,7.912 24.509,6.878 20.233,6.878 C17.54,6.878 15.095,7.172 12.897,7.757 C10.702,8.343 8.548,9.134 6.44,10.129 L4.419,4.562 C6.937,3.374 9.485,2.424 12.063,1.71 C14.64,0.998 17.599,0.641 20.937,0.641 C27.38,0.641 32.271,2.31 35.608,5.648 C38.772,8.812 40.354,13.264 40.354,19.003 L40.354,46.767 L33.677,46.767 L33.677,40.001 C32.095,42.053 29.972,43.854 27.308,45.405 C24.642,46.956 21.317,47.733 17.335,47.733 Z" id="Fill-4" fill="#FFFFFF" fill-rule="nonzero" mask="url(#mask-2)"></path>
                    </g>
                    <g id="Fill-6-Clipped">
                        <mask id="mask-4" fill="white">
                            <use xlink:href="#path-3"></use>
                        </mask>
                        <g id="path-1"></g>
                        <path d="M74.706,37.278 C76.872,37.278 78.952,36.913 80.944,36.18 C82.935,35.448 84.707,34.394 86.26,33.017 C87.811,31.642 89.056,30.016 89.993,28.141 C90.93,26.267 91.399,24.186 91.399,21.902 L91.399,21.727 C91.399,19.385 90.93,17.276 89.993,15.401 C89.056,13.527 87.811,11.917 86.26,10.569 C84.707,9.222 82.935,8.183 80.944,7.45 C78.952,6.718 76.872,6.352 74.706,6.352 C72.538,6.352 70.502,6.718 68.6,7.45 C66.695,8.183 65.026,9.207 63.592,10.525 C62.156,11.843 61.028,13.439 60.209,15.313 C59.389,17.189 58.979,19.297 58.979,21.639 L58.979,21.814 C58.979,24.099 59.403,26.194 60.253,28.097 C61.102,30.001 62.243,31.626 63.68,32.973 C65.114,34.321 66.783,35.375 68.688,36.136 C70.59,36.898 72.598,37.278 74.706,37.278 Z M74.794,61 C70.985,61 67.354,60.473 63.899,59.418 C60.442,58.364 57.191,56.782 54.146,54.674 L57.222,49.402 C59.857,51.276 62.61,52.711 65.48,53.707 C68.35,54.703 71.425,55.201 74.706,55.201 C79.742,55.201 83.755,53.839 86.742,51.115 C89.729,48.392 91.224,44.365 91.224,39.035 L91.224,33.676 C89.231,36.312 86.8,38.566 83.931,40.44 C81.061,42.316 77.546,43.252 73.388,43.252 C70.634,43.252 67.984,42.755 65.437,41.759 C62.889,40.764 60.618,39.343 58.628,37.497 C56.636,35.652 55.039,33.427 53.84,30.82 C52.638,28.215 52.038,25.271 52.038,21.99 L52.038,21.814 C52.038,18.476 52.638,15.489 53.84,12.853 C55.039,10.217 56.636,7.977 58.628,6.132 C60.618,4.287 62.902,2.867 65.48,1.871 C68.058,0.876 70.693,0.377 73.388,0.377 C75.497,0.377 77.443,0.627 79.23,1.124 C81.017,1.622 82.627,2.281 84.063,3.101 C85.497,3.922 86.8,4.888 87.973,6 C89.144,7.113 90.198,8.284 91.136,9.515 L91.136,1.344 L97.9,1.344 L97.9,38.859 C97.9,42.374 97.402,45.464 96.407,48.128 C95.41,50.793 93.976,53.063 92.102,54.938 C90.051,56.987 87.563,58.51 84.634,59.506 C81.704,60.501 78.425,61 74.794,61 Z" id="Fill-6" fill="#FFFFFF" fill-rule="nonzero" mask="url(#mask-4)"></path>
                    </g>
                </g>
                <path d="M318.31,39.287 C318.134,37.251 317.694,35.314 316.991,33.479 C316.289,31.645 315.336,30.028 314.136,28.63 C312.935,27.233 311.471,26.127 309.743,25.311 C308.015,24.496 306.038,24.088 303.813,24.088 C301.88,24.088 300.063,24.467 298.365,25.223 C296.666,25.981 295.173,27.044 293.885,28.412 C292.596,29.781 291.526,31.396 290.678,33.261 C289.828,35.125 289.286,37.134 289.053,39.287 L318.31,39.287 Z M289.053,44.822 C289.286,47.225 289.872,49.362 290.81,51.236 C291.746,53.111 292.947,54.693 294.412,55.981 C295.875,57.27 297.516,58.251 299.332,58.924 C301.146,59.598 303.051,59.935 305.043,59.935 C308.206,59.935 310.914,59.35 313.17,58.177 C315.424,57.006 317.488,55.453 319.364,53.521 L323.581,57.299 C321.297,59.877 318.689,61.941 315.762,63.492 C312.832,65.044 309.201,65.821 304.867,65.821 C301.762,65.821 298.834,65.25 296.081,64.107 C293.327,62.966 290.927,61.356 288.877,59.275 C286.826,57.197 285.2,54.693 284.001,51.764 C282.8,48.835 282.199,45.613 282.199,42.099 C282.199,38.819 282.74,35.729 283.825,32.83 C284.908,29.931 286.417,27.413 288.35,25.274 C290.282,23.137 292.58,21.452 295.246,20.222 C297.911,18.992 300.825,18.377 303.988,18.377 C307.327,18.377 310.314,19.007 312.95,20.266 C315.586,21.526 317.812,23.24 319.627,25.406 C321.442,27.573 322.819,30.122 323.757,33.049 C324.693,35.979 325.162,39.111 325.162,42.45 C325.162,42.744 325.162,43.08 325.162,43.461 C325.162,43.843 325.132,44.296 325.074,44.822 L289.053,44.822 Z" id="Fill-8" fill="#FFFFFF" fill-rule="nonzero"></path>
                <polyline id="Fill-9" fill="#81C4FE" fill-rule="nonzero" points="341.805 22.883 341.805 0.646 319.569 0.646 341.805 22.883"></polyline>
            </g>
        </g>
    </g>
</svg>